STARTFONT 2.1
COMMENT
COMMENT Converted from OpenType font "UbuntuMono-Bold.ttf" by "otf2bdf 3.0".
COMMENT
FONT -FreeType-ubuntu mono cp1252-Bold-R-Normal--28-200-100-100-P-111-ISO10646-1
SIZE 20 100 100
FONTBOUNDINGBOX 14 28 0 -5
STARTPROPERTIES 19
FOUNDRY "FreeType"
FAMILY_NAME "ubuntu mono cp1252"
WEIGHT_NAME "Bold"
SLANT "R"
SETWIDTH_NAME "Normal"
ADD_STYLE_NAME ""
PIXEL_SIZE 28
POINT_SIZE 200
RESOLUTION_X 100
RESOLUTION_Y 100
SPACING "P"
AVERAGE_WIDTH 111
CHARSET_REGISTRY "ISO10646"
CHARSET_ENCODING "1"
FONT_ASCENT 23
FONT_DESCENT 4
COPYRIGHT "Copyright 2011 Canonical Ltd.  Licensed under the Ubuntu Font Licence 1.0"
_OTF_FONTFILE "UbuntuMono-Bold.ttf"
_OTF_PSNAME "UbuntuMono-Bold"
ENDPROPERTIES
CHARS 223
STARTCHAR 0000
ENCODING 157
SWIDTH 504 0
DWIDTH 14 0
BBX 0 0 0 0
BITMAP
ENDCHAR
STARTCHAR 0008
ENCODING 8
SWIDTH 504 0
DWIDTH 14 0
BBX 0 0 0 0
BITMAP
ENDCHAR
STARTCHAR 0009
ENCODING 9
SWIDTH 504 0
DWIDTH 14 0
BBX 0 0 0 0
BITMAP
ENDCHAR
STARTCHAR 000D
ENCODING 13
SWIDTH 504 0
DWIDTH 14 0
BBX 0 0 0 0
BITMAP
ENDCHAR
STARTCHAR 001D
ENCODING 29
SWIDTH 504 0
DWIDTH 14 0
BBX 0 0 0 0
BITMAP
ENDCHAR
STARTCHAR 0020
ENCODING 32
SWIDTH 504 0
DWIDTH 14 0
BBX 0 0 0 0
BITMAP
ENDCHAR
STARTCHAR 0021
ENCODING 33
SWIDTH 504 0
DWIDTH 14 0
BBX 4 17 5 0
BITMAP
F0
F0
F0
F0
F0
F0
F0
F0
F0
F0
70
00
00
F0
F0
F0
F0
ENDCHAR
STARTCHAR 0022
ENCODING 34
SWIDTH 504 0
DWIDTH 14 0
BBX 10 8 2 11
BITMAP
F3C0
F3C0
F3C0
73C0
7380
7380
7180
6180
ENDCHAR
STARTCHAR 0023
ENCODING 35
SWIDTH 504 0
DWIDTH 14 0
BBX 14 17 0 0
BITMAP
0630
0E70
0E70
0E70
FFFC
FFFC
FFFC
1CE0
1CE0
1CE0
FFFC
FFFC
FFFC
39C0
39C0
39C0
7180
ENDCHAR
STARTCHAR 0024
ENCODING 36
SWIDTH 504 0
DWIDTH 14 0
BBX 12 23 1 -3
BITMAP
0F00
0F00
0F00
1FE0
3FE0
7FE0
7820
7000
7000
7C00
7F80
3FC0
0FE0
01F0
00F0
00F0
60F0
FFF0
FFE0
3F80
0F00
0F00
0F00
ENDCHAR
STARTCHAR 0025
ENCODING 37
SWIDTH 504 0
DWIDTH 14 0
BBX 14 17 0 0
BITMAP
381C
7C38
EC30
EE70
CEE0
ECC0
7DC0
3B80
0300
0770
0EF8
0CDC
1DDC
39DC
30DC
70F8
E070
ENDCHAR
STARTCHAR 0026
ENCODING 38
SWIDTH 504 0
DWIDTH 14 0
BBX 12 17 1 0
BITMAP
1F00
3F80
7F80
7380
7380
7380
7F00
3E00
7E70
FE70
EF70
E3E0
E1E0
E1E0
FFE0
7FF0
3E70
ENDCHAR
STARTCHAR 0027
ENCODING 39
SWIDTH 504 0
DWIDTH 14 0
BBX 4 8 5 11
BITMAP
F0
F0
F0
F0
F0
70
60
60
ENDCHAR
STARTCHAR 0028
ENCODING 40
SWIDTH 504 0
DWIDTH 14 0
BBX 8 25 3 -5
BITMAP
02
07
0F
1E
3C
78
70
F0
E0
E0
E0
E0
E0
E0
E0
E0
E0
F0
70
78
3C
1E
0F
07
02
ENDCHAR
STARTCHAR 0029
ENCODING 41
SWIDTH 504 0
DWIDTH 14 0
BBX 8 25 3 -5
BITMAP
40
E0
F0
78
3C
1E
0E
0F
07
07
07
07
07
07
07
07
07
0F
0E
1E
3C
78
F8
E0
40
ENDCHAR
STARTCHAR 002A
ENCODING 42
SWIDTH 504 0
DWIDTH 14 0
BBX 12 11 1 6
BITMAP
0F00
0700
6660
7EE0
FFF0
3FC0
0F00
1F80
3DC0
39C0
1880
ENDCHAR
STARTCHAR 002B
ENCODING 43
SWIDTH 504 0
DWIDTH 14 0
BBX 12 13 1 0
BITMAP
0600
0600
0600
0600
0600
FFF0
FFF0
FFF0
0600
0600
0600
0600
0600
ENDCHAR
STARTCHAR 002C
ENCODING 44
SWIDTH 504 0
DWIDTH 14 0
BBX 6 10 4 -5
BITMAP
38
78
7C
7C
3C
18
38
70
E0
C0
ENDCHAR
STARTCHAR 002D
ENCODING 45
SWIDTH 504 0
DWIDTH 14 0
BBX 8 3 3 6
BITMAP
FF
FF
FF
ENDCHAR
STARTCHAR 002E
ENCODING 46
SWIDTH 504 0
DWIDTH 14 0
BBX 5 5 5 0
BITMAP
70
F0
F8
F0
F0
ENDCHAR
STARTCHAR 002F
ENCODING 47
SWIDTH 504 0
DWIDTH 14 0
BBX 12 25 1 -5
BITMAP
00F0
00E0
01E0
01E0
01C0
03C0
03C0
0380
0780
0780
0700
0700
0F00
0F00
0E00
1E00
1E00
1C00
3C00
3C00
3800
7800
7800
7000
F000
ENDCHAR
STARTCHAR 0030
ENCODING 48
SWIDTH 504 0
DWIDTH 14 0
BBX 12 17 1 0
BITMAP
0F80
3FC0
7FE0
79E0
F0F0
E070
E670
EF70
EF70
E670
E070
E070
F0F0
79E0
7FE0
3FC0
1F00
ENDCHAR
STARTCHAR 0031
ENCODING 49
SWIDTH 504 0
DWIDTH 14 0
BBX 12 17 1 0
BITMAP
0300
0F00
1F00
FF00
7F00
6700
0700
0700
0700
0700
0700
0700
0700
0700
7FF0
7FF0
7FF0
ENDCHAR
STARTCHAR 0032
ENCODING 50
SWIDTH 504 0
DWIDTH 14 0
BBX 12 17 1 0
BITMAP
1F00
7FC0
FFE0
61E0
00E0
00E0
01E0
03C0
0780
0F00
1E00
3C00
7800
7800
7FF0
7FF0
7FF0
ENDCHAR
STARTCHAR 0033
ENCODING 51
SWIDTH 504 0
DWIDTH 14 0
BBX 12 17 1 0
BITMAP
1F00
7FC0
7FC0
61E0
01E0
01E0
01C0
1FC0
1FC0
1FE0
01E0
00F0
00F0
41E0
FFE0
FFC0
7F00
ENDCHAR
STARTCHAR 0034
ENCODING 52
SWIDTH 504 0
DWIDTH 14 0
BBX 12 17 1 0
BITMAP
01C0
03C0
07C0
0FC0
1FC0
1DC0
39C0
79C0
71C0
E1C0
FFF0
FFF0
FFF0
01C0
01C0
01C0
01C0
ENDCHAR
STARTCHAR 0035
ENCODING 53
SWIDTH 504 0
DWIDTH 14 0
BBX 12 17 1 0
BITMAP
3FE0
3FE0
3FE0
3800
3800
3800
3F00
7FC0
7FE0
03E0
00E0
00F0
00E0
01E0
FFE0
FFC0
7F00
ENDCHAR
STARTCHAR 0036
ENCODING 54
SWIDTH 504 0
DWIDTH 14 0
BBX 12 17 1 0
BITMAP
01E0
07E0
1FE0
3F00
3C00
7800
7F80
FFC0
FFE0
F1E0
F0F0
F0F0
70F0
78E0
7FE0
3FC0
1F80
ENDCHAR
STARTCHAR 0037
ENCODING 55
SWIDTH 504 0
DWIDTH 14 0
BBX 12 17 1 0
BITMAP
FFF0
FFF0
FFF0
01E0
01E0
03C0
0380
0780
0700
0F00
0F00
0E00
1E00
1E00
1E00
1C00
1C00
ENDCHAR
STARTCHAR 0038
ENCODING 56
SWIDTH 504 0
DWIDTH 14 0
BBX 12 17 1 0
BITMAP
1F80
3FC0
7FE0
70E0
F0E0
70E0
79E0
3FC0
3FC0
73E0
F0F0
E070
E070
F0F0
7FE0
7FE0
1F80
ENDCHAR
STARTCHAR 0039
ENCODING 57
SWIDTH 504 0
DWIDTH 14 0
BBX 12 17 1 0
BITMAP
1F00
3FC0
7FE0
71E0
F0F0
F0F0
F0F0
78F0
7FF0
3FF0
1FE0
01E0
03E0
0FC0
7F80
7F00
7800
ENDCHAR
STARTCHAR 003A
ENCODING 58
SWIDTH 504 0
DWIDTH 14 0
BBX 5 13 5 0
BITMAP
70
F0
F8
F0
F0
00
00
00
70
F0
F8
F0
F0
ENDCHAR
STARTCHAR 003B
ENCODING 59
SWIDTH 504 0
DWIDTH 14 0
BBX 7 18 3 -5
BITMAP
1C
3C
3E
3C
1C
00
00
00
38
3C
7C
3E
3C
0C
1C
38
F0
60
ENDCHAR
STARTCHAR 003C
ENCODING 60
SWIDTH 504 0
DWIDTH 14 0
BBX 12 12 1 1
BITMAP
0020
01E0
07F0
1FE0
FF00
F800
F800
FF00
1FE0
07F0
01F0
0020
ENDCHAR
STARTCHAR 003D
ENCODING 61
SWIDTH 504 0
DWIDTH 14 0
BBX 12 9 1 2
BITMAP
FFF0
FFF0
FFF0
0000
0000
0000
FFF0
FFF0
FFF0
ENDCHAR
STARTCHAR 003E
ENCODING 62
SWIDTH 504 0
DWIDTH 14 0
BBX 12 12 1 1
BITMAP
4000
7800
FE00
7FC0
0FF0
01F0
01F0
0FF0
7FC0
FE00
7800
4000
ENDCHAR
STARTCHAR 003F
ENCODING 63
SWIDTH 504 0
DWIDTH 14 0
BBX 10 17 2 0
BITMAP
3F00
FF80
FFC0
43C0
01C0
03C0
0780
0F00
1E00
1C00
1C00
0000
0000
1C00
3E00
3E00
1C00
ENDCHAR
STARTCHAR 0040
ENCODING 64
SWIDTH 504 0
DWIDTH 14 0
BBX 13 21 0 -4
BITMAP
07C0
1FF0
3C70
3838
7038
71F8
63F8
67F8
6738
E738
E738
6738
6738
67F8
63F8
71F8
3000
3800
1C00
0FF0
03F8
ENDCHAR
STARTCHAR 0041
ENCODING 65
SWIDTH 504 0
DWIDTH 14 0
BBX 14 17 0 0
BITMAP
0780
0780
0FC0
0FC0
0FC0
1CE0
1CE0
1CE0
1CF0
3870
3FF0
3FF0
7FF8
7878
7038
7038
F03C
ENDCHAR
STARTCHAR 0042
ENCODING 66
SWIDTH 504 0
DWIDTH 14 0
BBX 11 17 2 0
BITMAP
FE00
FF80
FFC0
E3C0
E1C0
E1C0
E3C0
FF80
FF80
FFC0
E1E0
E0E0
E0E0
E1E0
FFC0
FFC0
FF00
ENDCHAR
STARTCHAR 0043
ENCODING 67
SWIDTH 504 0
DWIDTH 14 0
BBX 12 17 1 0
BITMAP
07E0
1FF0
3FF0
7820
F000
F000
E000
E000
E000
E000
E000
F000
F000
7820
7FF0
3FF0
0FE0
ENDCHAR
STARTCHAR 0044
ENCODING 68
SWIDTH 504 0
DWIDTH 14 0
BBX 11 17 2 0
BITMAP
FE00
FF80
FFC0
E3C0
E1E0
E1E0
E0E0
E0E0
E0E0
E0E0
E0E0
E1E0
E1E0
E3C0
FF80
FF00
FE00
ENDCHAR
STARTCHAR 0045
ENCODING 69
SWIDTH 504 0
DWIDTH 14 0
BBX 11 17 2 0
BITMAP
FFC0
FFC0
FFC0
E000
E000
E000
FF80
FF80
FF80
E000
E000
E000
E000
E000
FFE0
FFE0
FFE0
ENDCHAR
STARTCHAR 0046
ENCODING 70
SWIDTH 504 0
DWIDTH 14 0
BBX 10 17 2 0
BITMAP
FFC0
FFC0
FFC0
E000
E000
E000
E000
FF80
FF80
FF80
E000
E000
E000
E000
E000
E000
E000
ENDCHAR
STARTCHAR 0047
ENCODING 71
SWIDTH 504 0
DWIDTH 14 0
BBX 12 17 1 0
BITMAP
0FF0
1FF0
3FE0
7C20
F000
F000
E000
E000
E0F0
E0F0
E0F0
F0F0
F0F0
78F0
7FF0
3FF0
0FF0
ENDCHAR
STARTCHAR 0048
ENCODING 72
SWIDTH 504 0
DWIDTH 14 0
BBX 12 17 1 0
BITMAP
F0F0
F0F0
F0F0
F0F0
F0F0
F0F0
FFF0
FFF0
FFF0
F0F0
F0F0
F0F0
F0F0
F0F0
F0F0
F0F0
F0F0
ENDCHAR
STARTCHAR 0049
ENCODING 73
SWIDTH 504 0
DWIDTH 14 0
BBX 11 17 2 0
BITMAP
FFE0
FFE0
FFE0
1E00
1E00
1E00
1E00
1E00
1E00
1E00
1E00
1E00
1E00
1E00
FFE0
FFE0
FFE0
ENDCHAR
STARTCHAR 004A
ENCODING 74
SWIDTH 504 0
DWIDTH 14 0
BBX 11 17 1 0
BITMAP
3FE0
3FE0
3FE0
00E0
00E0
00E0
00E0
00E0
00E0
00E0
00E0
00E0
00E0
61E0
7FC0
FFC0
3F00
ENDCHAR
STARTCHAR 004B
ENCODING 75
SWIDTH 504 0
DWIDTH 14 0
BBX 13 17 1 0
BITMAP
F0F0
F1E0
F1E0
F3C0
F380
F780
FF00
FE00
FE00
FF00
F780
F3C0
F3E0
F1E0
F0F0
F0F0
F078
ENDCHAR
STARTCHAR 004C
ENCODING 76
SWIDTH 504 0
DWIDTH 14 0
BBX 11 17 2 0
BITMAP
E000
E000
E000
E000
E000
E000
E000
E000
E000
E000
E000
E000
E000
E000
FFE0
FFE0
FFE0
ENDCHAR
STARTCHAR 004D
ENCODING 77
SWIDTH 504 0
DWIDTH 14 0
BBX 12 17 1 0
BITMAP
70E0
F0E0
F0F0
F9F0
F9F0
F9F0
FFF0
EF70
EF70
EF70
E670
E070
E070
E070
E070
E070
E070
ENDCHAR
STARTCHAR 004E
ENCODING 78
SWIDTH 504 0
DWIDTH 14 0
BBX 12 17 1 0
BITMAP
E070
F070
F870
F870
FC70
FC70
EE70
EE70
E770
E770
E3F0
E3F0
E1F0
E1F0
E0F0
E0F0
E070
ENDCHAR
STARTCHAR 004F
ENCODING 79
SWIDTH 504 0
DWIDTH 14 0
BBX 12 17 1 0
BITMAP
1F80
3FC0
7FE0
79E0
F0F0
E070
E070
E070
E070
E070
E070
E0F0
F0F0
79E0
7FE0
3FC0
1F80
ENDCHAR
STARTCHAR 0050
ENCODING 80
SWIDTH 504 0
DWIDTH 14 0
BBX 11 17 2 0
BITMAP
FF00
FFC0
FFE0
E1E0
E0E0
E0E0
E0E0
E1E0
FFC0
FFC0
FF00
E000
E000
E000
E000
E000
E000
ENDCHAR
STARTCHAR 0051
ENCODING 81
SWIDTH 504 0
DWIDTH 14 0
BBX 12 22 1 -5
BITMAP
1F80
3FC0
7FE0
79E0
F0F0
E070
E070
E070
E070
E070
E070
E0F0
F0F0
79E0
7FE0
3FC0
1F80
0700
07C0
03F0
01F0
0070
ENDCHAR
STARTCHAR 0052
ENCODING 82
SWIDTH 504 0
DWIDTH 14 0
BBX 11 17 2 0
BITMAP
FE00
FF80
FFC0
E3C0
E1C0
E1E0
E1C0
E3C0
FFC0
FF80
FF00
E780
E380
E3C0
E1E0
E1E0
E0E0
ENDCHAR
STARTCHAR 0053
ENCODING 83
SWIDTH 504 0
DWIDTH 14 0
BBX 12 17 1 0
BITMAP
1F80
3FE0
7FE0
7040
F000
F000
7C00
7F80
3FC0
0FE0
01F0
00F0
00F0
40F0
7FE0
FFE0
3F80
ENDCHAR
STARTCHAR 0054
ENCODING 84
SWIDTH 504 0
DWIDTH 14 0
BBX 12 17 1 0
BITMAP
FFF0
FFF0
FFF0
0F00
0F00
0F00
0F00
0F00
0F00
0F00
0F00
0F00
0F00
0F00
0F00
0F00
0F00
ENDCHAR
STARTCHAR 0055
ENCODING 85
SWIDTH 504 0
DWIDTH 14 0
BBX 12 17 1 0
BITMAP
F0F0
F0F0
F0F0
F0F0
F0F0
F0F0
F0F0
F0F0
F0F0
F0F0
F0F0
F0F0
F0F0
F0F0
7FE0
3FC0
1F80
ENDCHAR
STARTCHAR 0056
ENCODING 86
SWIDTH 504 0
DWIDTH 14 0
BBX 14 17 0 0
BITMAP
F03C
7038
7038
7878
7878
3870
3870
3870
3CF0
1CE0
1CE0
1CE0
0FC0
0FC0
0FC0
0780
0780
ENDCHAR
STARTCHAR 0057
ENCODING 87
SWIDTH 504 0
DWIDTH 14 0
BBX 12 17 1 0
BITMAP
E070
E070
E070
E070
E070
E070
E670
EF70
EF70
EF70
FFF0
F9F0
F9F0
F9F0
F0F0
70F0
70E0
ENDCHAR
STARTCHAR 0058
ENCODING 88
SWIDTH 504 0
DWIDTH 14 0
BBX 12 17 1 0
BITMAP
F070
F0F0
78E0
39C0
3DC0
1F80
1F80
0F00
0F00
1F80
1FC0
3DC0
39E0
79E0
F0F0
F0F0
E070
ENDCHAR
STARTCHAR 0059
ENCODING 89
SWIDTH 504 0
DWIDTH 14 0
BBX 12 17 1 0
BITMAP
E070
F070
F0F0
70E0
79E0
39C0
3DC0
1F80
1F80
0F00
0F00
0F00
0F00
0F00
0F00
0F00
0F00
ENDCHAR
STARTCHAR 005A
ENCODING 90
SWIDTH 504 0
DWIDTH 14 0
BBX 12 17 1 0
BITMAP
7FE0
7FE0
7FE0
01C0
03C0
0380
0780
0700
0E00
1E00
1C00
3C00
3800
7800
7FF0
FFF0
FFF0
ENDCHAR
STARTCHAR 005B
ENCODING 91
SWIDTH 504 0
DWIDTH 14 0
BBX 8 25 3 -5
BITMAP
FF
FF
FF
E0
E0
E0
E0
E0
E0
E0
E0
E0
E0
E0
E0
E0
E0
E0
E0
E0
E0
E0
FF
FF
FF
ENDCHAR
STARTCHAR 005C
ENCODING 92
SWIDTH 504 0
DWIDTH 14 0
BBX 11 25 2 -5
BITMAP
E000
E000
F000
F000
7000
7800
7800
3800
3C00
3C00
1C00
1E00
1E00
0E00
0E00
0F00
0700
0700
0780
0780
0380
03C0
03C0
01C0
01E0
ENDCHAR
STARTCHAR 005D
ENCODING 93
SWIDTH 504 0
DWIDTH 14 0
BBX 8 25 3 -5
BITMAP
FF
FF
FF
07
07
07
07
07
07
07
07
07
07
07
07
07
07
07
07
07
07
07
FF
FF
FF
ENDCHAR
STARTCHAR 005E
ENCODING 94
SWIDTH 504 0
DWIDTH 14 0
BBX 13 9 1 8
BITMAP
0F00
0F80
1F80
3FC0
39E0
78E0
F0F0
E078
6060
ENDCHAR
STARTCHAR 005F
ENCODING 95
SWIDTH 504 0
DWIDTH 14 0
BBX 14 3 0 -5
BITMAP
FFFC
FFFC
FFFC
ENDCHAR
STARTCHAR 0060
ENCODING 96
SWIDTH 504 0
DWIDTH 14 0
BBX 6 5 4 14
BITMAP
20
70
FC
3C
08
ENDCHAR
STARTCHAR 0061
ENCODING 97
SWIDTH 504 0
DWIDTH 14 0
BBX 11 13 1 0
BITMAP
3F80
3FC0
3FE0
01E0
00E0
1FE0
7FE0
FFE0
F0E0
F0E0
FFE0
7FE0
3FE0
ENDCHAR
STARTCHAR 0062
ENCODING 98
SWIDTH 504 0
DWIDTH 14 0
BBX 11 19 2 0
BITMAP
E000
E000
E000
E000
E000
E000
EF00
FFC0
FFC0
F1E0
E1E0
E0E0
E0E0
E0E0
E1E0
E1E0
FFC0
FF80
7F00
ENDCHAR
STARTCHAR 0063
ENCODING 99
SWIDTH 504 0
DWIDTH 14 0
BBX 12 13 1 0
BITMAP
0FE0
1FF0
3FE0
7800
F000
F000
F000
F000
F000
7800
7FF0
3FF0
0FF0
ENDCHAR
STARTCHAR 0064
ENCODING 100
SWIDTH 504 0
DWIDTH 14 0
BBX 11 19 1 0
BITMAP
00E0
00E0
00E0
00E0
00E0
00E0
1EE0
7FE0
7FE0
F1E0
F0E0
E0E0
E0E0
E0E0
F0E0
F0E0
7FE0
3FE0
1FC0
ENDCHAR
STARTCHAR 0065
ENCODING 101
SWIDTH 504 0
DWIDTH 14 0
BBX 12 13 1 0
BITMAP
0F80
3FC0
7FE0
F0F0
F070
FFF0
FFF0
FFF0
F000
F820
7FE0
3FE0
0FC0
ENDCHAR
STARTCHAR 0066
ENCODING 102
SWIDTH 504 0
DWIDTH 14 0
BBX 13 19 1 0
BITMAP
03F0
0FF8
1FF0
1E10
1C00
1C00
FFF0
FFF0
FFF0
1C00
1C00
1C00
1C00
1C00
1C00
1C00
1C00
1C00
1C00
ENDCHAR
STARTCHAR 0067
ENCODING 103
SWIDTH 504 0
DWIDTH 14 0
BBX 11 18 1 -5
BITMAP
1FE0
3FE0
7FE0
F8E0
F0E0
E0E0
E0E0
F0E0
F0E0
7FE0
7FE0
1FE0
00E0
00E0
41E0
FFC0
FFC0
7F00
ENDCHAR
STARTCHAR 0068
ENCODING 104
SWIDTH 504 0
DWIDTH 14 0
BBX 10 19 2 0
BITMAP
E000
E000
E000
E000
E000
E000
FF00
FF80
FFC0
E3C0
E1C0
E1C0
E1C0
E1C0
E1C0
E1C0
E1C0
E1C0
E1C0
ENDCHAR
STARTCHAR 0069
ENCODING 105
SWIDTH 504 0
DWIDTH 14 0
BBX 12 19 1 0
BITMAP
1C00
1E00
1E00
1C00
0000
0000
FE00
FE00
FE00
0E00
0E00
0E00
0E00
0E00
0E00
0F10
0FF0
07F0
03E0
ENDCHAR
STARTCHAR 006A
ENCODING 106
SWIDTH 504 0
DWIDTH 14 0
BBX 10 24 1 -5
BITMAP
0380
07C0
07C0
0380
0000
0000
7FC0
7FC0
7FC0
01C0
01C0
01C0
01C0
01C0
01C0
01C0
01C0
01C0
01C0
01C0
63C0
7FC0
FF80
3F00
ENDCHAR
STARTCHAR 006B
ENCODING 107
SWIDTH 504 0
DWIDTH 14 0
BBX 11 19 2 0
BITMAP
E000
E000
E000
E000
E000
E000
E1E0
E3C0
E780
E700
EE00
FC00
FE00
EF00
E780
E780
E3C0
E1E0
E1E0
ENDCHAR
STARTCHAR 006C
ENCODING 108
SWIDTH 504 0
DWIDTH 14 0
BBX 12 19 1 0
BITMAP
FE00
FE00
FE00
0E00
0E00
0E00
0E00
0E00
0E00
0E00
0E00
0E00
0E00
0E00
0E00
0F10
0FF0
07F0
03E0
ENDCHAR
STARTCHAR 006D
ENCODING 109
SWIDTH 504 0
DWIDTH 14 0
BBX 12 13 1 0
BITMAP
FDE0
FFF0
FFF0
EE70
E670
E670
E670
E670
E070
E070
E070
E070
E070
ENDCHAR
STARTCHAR 006E
ENCODING 110
SWIDTH 504 0
DWIDTH 14 0
BBX 10 13 2 0
BITMAP
7F00
FF80
FFC0
E3C0
E1C0
E1C0
E1C0
E1C0
E1C0
E1C0
E1C0
E1C0
E1C0
ENDCHAR
STARTCHAR 006F
ENCODING 111
SWIDTH 504 0
DWIDTH 14 0
BBX 12 13 1 0
BITMAP
1F80
3FC0
7FE0
F0F0
F0F0
E070
E070
E070
F0F0
F0F0
7FE0
3FC0
1F80
ENDCHAR
STARTCHAR 0070
ENCODING 112
SWIDTH 504 0
DWIDTH 14 0
BBX 11 18 2 -5
BITMAP
7F00
FF80
FFC0
E3E0
E1E0
E0E0
E0E0
E0E0
E1E0
E1E0
FFC0
FFC0
FF00
E000
E000
E000
E000
E000
ENDCHAR
STARTCHAR 0071
ENCODING 113
SWIDTH 504 0
DWIDTH 14 0
BBX 11 18 1 -5
BITMAP
1FC0
3FE0
7FE0
F8E0
F0E0
E0E0
E0E0
E0E0
F0E0
F1E0
7FE0
7FE0
1EE0
00E0
00E0
00E0
00E0
00E0
ENDCHAR
STARTCHAR 0072
ENCODING 114
SWIDTH 504 0
DWIDTH 14 0
BBX 11 13 2 0
BITMAP
3FE0
FFE0
FFC0
F000
F000
F000
F000
F000
F000
F000
F000
F000
F000
ENDCHAR
STARTCHAR 0073
ENCODING 115
SWIDTH 504 0
DWIDTH 14 0
BBX 10 13 2 0
BITMAP
3F80
7FC0
FF80
E080
F000
FC00
7F80
0FC0
01C0
C1C0
FFC0
FFC0
7F00
ENDCHAR
STARTCHAR 0074
ENCODING 116
SWIDTH 504 0
DWIDTH 14 0
BBX 12 17 1 0
BITMAP
0400
1C00
1C00
1C00
FFF0
FFF0
FFF0
1C00
1C00
1C00
1C00
1C00
1C00
1E10
1FF0
0FF0
07F0
ENDCHAR
STARTCHAR 0075
ENCODING 117
SWIDTH 504 0
DWIDTH 14 0
BBX 10 13 2 0
BITMAP
E1C0
E1C0
E1C0
E1C0
E1C0
E1C0
E1C0
E1C0
E1C0
F1C0
FFC0
7FC0
3F80
ENDCHAR
STARTCHAR 0076
ENCODING 118
SWIDTH 504 0
DWIDTH 14 0
BBX 12 13 1 0
BITMAP
E070
E070
F0F0
F0E0
70E0
79E0
39C0
39C0
3F80
1F80
1F80
0F00
0F00
ENDCHAR
STARTCHAR 0077
ENCODING 119
SWIDTH 504 0
DWIDTH 14 0
BBX 14 13 0 0
BITMAP
E01C
E01C
6018
6318
6798
77B8
77B8
77B8
7FF8
3CF0
3CF0
3CF0
3870
ENDCHAR
STARTCHAR 0078
ENCODING 120
SWIDTH 504 0
DWIDTH 14 0
BBX 12 13 1 0
BITMAP
F0F0
70E0
79E0
3DC0
1F80
0F80
0F00
1F80
1FC0
39C0
79E0
F0F0
E070
ENDCHAR
STARTCHAR 0079
ENCODING 121
SWIDTH 504 0
DWIDTH 14 0
BBX 12 18 1 -5
BITMAP
F070
F0F0
70F0
78E0
78E0
39E0
3DC0
3DC0
1DC0
1F80
0F80
0F80
0700
0F00
0E00
FE00
FC00
F800
ENDCHAR
STARTCHAR 007A
ENCODING 122
SWIDTH 504 0
DWIDTH 14 0
BBX 10 13 2 0
BITMAP
FFC0
FFC0
FFC0
0780
0F80
0F00
1E00
3C00
7800
7000
FFC0
FFC0
FFC0
ENDCHAR
STARTCHAR 007B
ENCODING 123
SWIDTH 504 0
DWIDTH 14 0
BBX 10 25 2 -5
BITMAP
07C0
0FC0
1FC0
1C00
1C00
1C00
1C00
1C00
1C00
1C00
3C00
F800
E000
F800
3C00
1C00
1C00
1C00
1C00
1C00
1C00
1C00
1FC0
0FC0
07C0
ENDCHAR
STARTCHAR 007C
ENCODING 124
SWIDTH 504 0
DWIDTH 14 0
BBX 4 25 5 -5
BITMAP
F0
F0
F0
F0
F0
F0
F0
F0
F0
F0
F0
F0
F0
F0
F0
F0
F0
F0
F0
F0
F0
F0
F0
F0
F0
ENDCHAR
STARTCHAR 007D
ENCODING 125
SWIDTH 504 0
DWIDTH 14 0
BBX 10 25 2 -5
BITMAP
F800
FC00
FE00
1E00
0E00
0E00
0E00
0E00
0E00
0E00
0F00
07C0
01C0
07C0
0F00
0E00
0E00
0E00
0E00
0E00
0E00
0E00
FE00
FC00
F800
ENDCHAR
STARTCHAR 007E
ENCODING 126
SWIDTH 504 0
DWIDTH 14 0
BBX 12 5 1 5
BITMAP
3830
7E70
FFF0
E7F0
C1C0
ENDCHAR
STARTCHAR 00A0
ENCODING 160
SWIDTH 504 0
DWIDTH 14 0
BBX 0 0 0 0
BITMAP
ENDCHAR
STARTCHAR 00A1
ENCODING 161
SWIDTH 504 0
DWIDTH 14 0
BBX 4 18 5 -5
BITMAP
F0
F0
F0
F0
00
00
E0
F0
F0
F0
F0
F0
F0
F0
F0
F0
F0
F0
ENDCHAR
STARTCHAR 00A2
ENCODING 162
SWIDTH 504 0
DWIDTH 14 0
BBX 12 20 1 -3
BITMAP
0780
0780
0780
0780
0FE0
3FE0
7FE0
7820
F000
F000
F000
F000
7800
7FE0
3FF0
0FF0
0780
0780
0780
0780
ENDCHAR
STARTCHAR 00A3
ENCODING 163
SWIDTH 504 0
DWIDTH 14 0
BBX 12 17 1 0
BITMAP
07E0
0FE0
1FE0
1C20
3C00
3C00
3C00
3C00
FFC0
FFC0
FFC0
3C00
3800
3800
3FF0
3FF0
3FF0
ENDCHAR
STARTCHAR 00A4
ENCODING 164
SWIDTH 504 0
DWIDTH 14 0
BBX 12 12 1 3
BITMAP
6020
FFF0
FFF0
7FE0
79E0
70E0
70E0
79E0
7FE0
FFF0
FFF0
6060
ENDCHAR
STARTCHAR 00A5
ENCODING 165
SWIDTH 504 0
DWIDTH 14 0
BBX 12 17 1 0
BITMAP
E070
F070
F0F0
70E0
79E0
39C0
3FC0
1F80
FFF0
FFF0
0F00
0F00
FFF0
FFF0
0F00
0F00
0F00
ENDCHAR
STARTCHAR 00A6
ENCODING 166
SWIDTH 504 0
DWIDTH 14 0
BBX 4 25 5 -5
BITMAP
F0
F0
F0
F0
F0
F0
F0
F0
F0
F0
00
00
00
00
00
F0
F0
F0
F0
F0
F0
F0
F0
F0
F0
ENDCHAR
STARTCHAR 00A7
ENCODING 167
SWIDTH 504 0
DWIDTH 14 0
BBX 12 20 1 -3
BITMAP
0FC0
3FE0
3FE0
7860
7800
3F00
3FC0
7FE0
73E0
70F0
70E0
7CE0
3FC0
0FC0
03E0
00E0
61E0
7FE0
FFC0
3F80
ENDCHAR
STARTCHAR 00A8
ENCODING 168
SWIDTH 504 0
DWIDTH 14 0
BBX 10 4 2 15
BITMAP
7180
F3C0
F3C0
7380
ENDCHAR
STARTCHAR 00A9
ENCODING 169
SWIDTH 504 0
DWIDTH 14 0
BBX 12 13 1 0
BITMAP
1F80
3FC0
70E0
EF70
DF30
D830
D830
D830
DF30
EF70
70E0
3FC0
1F80
ENDCHAR
STARTCHAR 00AA
ENCODING 170
SWIDTH 504 0
DWIDTH 14 0
BBX 8 9 3 8
BITMAP
7E
7F
07
3F
FF
E3
E3
FF
7F
ENDCHAR
STARTCHAR 00AB
ENCODING 171
SWIDTH 504 0
DWIDTH 14 0
BBX 10 12 2 1
BITMAP
10C0
38C0
31C0
7180
E380
E700
E700
E380
7180
31C0
38C0
1040
ENDCHAR
STARTCHAR 00AC
ENCODING 172
SWIDTH 504 0
DWIDTH 14 0
BBX 12 9 1 1
BITMAP
FFF0
FFF0
FFF0
0070
0070
0070
0070
0070
0070
ENDCHAR
STARTCHAR 00AD
ENCODING 173
SWIDTH 504 0
DWIDTH 14 0
BBX 8 3 3 6
BITMAP
FF
FF
FF
ENDCHAR
STARTCHAR 00AE
ENCODING 174
SWIDTH 504 0
DWIDTH 14 0
BBX 12 13 1 0
BITMAP
1F80
3FC0
70E0
EF70
CF30
C9B0
C930
CF30
CF30
E9F0
70E0
3FC0
1F80
ENDCHAR
STARTCHAR 00AF
ENCODING 175
SWIDTH 504 0
DWIDTH 14 0
BBX 8 2 3 16
BITMAP
FF
FF
ENDCHAR
STARTCHAR 00B0
ENCODING 176
SWIDTH 504 0
DWIDTH 14 0
BBX 8 7 3 13
BITMAP
3C
7E
E7
E3
E7
7E
3C
ENDCHAR
STARTCHAR 00B1
ENCODING 177
SWIDTH 504 0
DWIDTH 14 0
BBX 12 15 1 0
BITMAP
0600
0600
0600
0600
FFF0
FFF0
FFF0
0600
0600
0600
0600
0000
FFF0
FFF0
FFF0
ENDCHAR
STARTCHAR 00B2
ENCODING 178
SWIDTH 504 0
DWIDTH 14 0
BBX 8 10 3 8
BITMAP
3C
FE
47
07
0E
1C
38
70
7F
7F
ENDCHAR
STARTCHAR 00B3
ENCODING 179
SWIDTH 504 0
DWIDTH 14 0
BBX 8 10 3 8
BITMAP
7C
7E
46
0E
3E
3E
07
47
FE
7C
ENDCHAR
STARTCHAR 00B4
ENCODING 180
SWIDTH 504 0
DWIDTH 14 0
BBX 6 5 4 14
BITMAP
08
1C
7C
F8
60
ENDCHAR
STARTCHAR 00B5
ENCODING 181
SWIDTH 504 0
DWIDTH 14 0
BBX 10 18 2 -5
BITMAP
E1C0
E1C0
E1C0
E1C0
E1C0
E1C0
E1C0
E1C0
E1C0
F1C0
FFC0
FFC0
FF80
E000
E000
E000
E000
E000
ENDCHAR
STARTCHAR 00B6
ENCODING 182
SWIDTH 504 0
DWIDTH 14 0
BBX 12 22 1 -5
BITMAP
1FE0
7FF0
FFF0
FE70
FE70
FE70
FE70
FE70
FE70
7E70
3E70
0E70
0E70
0E70
0E70
0E70
0E70
0E70
0E70
0E70
0E70
0E70
ENDCHAR
STARTCHAR 00B7
ENCODING 183
SWIDTH 504 0
DWIDTH 14 0
BBX 5 5 5 5
BITMAP
70
F0
F8
F0
F0
ENDCHAR
STARTCHAR 00B8
ENCODING 184
SWIDTH 504 0
DWIDTH 14 0
BBX 6 5 4 -5
BITMAP
38
38
1C
7C
F8
ENDCHAR
STARTCHAR 00B9
ENCODING 185
SWIDTH 504 0
DWIDTH 14 0
BBX 8 9 4 8
BITMAP
1C
7C
FC
DC
1C
1C
1C
FF
FF
ENDCHAR
STARTCHAR 00BA
ENCODING 186
SWIDTH 504 0
DWIDTH 14 0
BBX 10 11 2 7
BITMAP
1E00
7F80
7F80
F3C0
E1C0
E1C0
E1C0
F3C0
7F80
7F80
1E00
ENDCHAR
STARTCHAR 00BB
ENCODING 187
SWIDTH 504 0
DWIDTH 14 0
BBX 10 12 2 1
BITMAP
C200
C700
E300
6380
71C0
39C0
39C0
71C0
6380
E300
C700
C200
ENDCHAR
STARTCHAR 00BC
ENCODING 188
SWIDTH 504 0
DWIDTH 14 0
BBX 14 17 0 0
BITMAP
1870
7870
F8E0
38E0
39C0
39C0
3B80
0380
0700
0700
0E38
0E78
1CD8
1CD8
39FC
31FC
7018
ENDCHAR
STARTCHAR 00BD
ENCODING 189
SWIDTH 504 0
DWIDTH 14 0
BBX 14 17 0 0
BITMAP
3870
7870
F8E0
38E0
39C0
39C0
3B80
0380
0700
0700
0E78
0EFC
1C9C
1C18
3870
30FC
70FC
ENDCHAR
STARTCHAR 00BE
ENCODING 190
SWIDTH 504 0
DWIDTH 14 0
BBX 14 17 0 0
BITMAP
7838
7C70
0C70
38E0
3CE0
7DC0
FDC0
0380
0380
0700
0738
0E78
0ED8
1CD8
19FC
39FC
3018
ENDCHAR
STARTCHAR 00BF
ENCODING 191
SWIDTH 504 0
DWIDTH 14 0
BBX 10 18 2 -5
BITMAP
0E00
1F00
1F00
0E00
0000
0000
0E00
0E00
1E00
3C00
7C00
F800
F000
F000
F080
FFC0
7FC0
3F00
ENDCHAR
STARTCHAR 00C0
ENCODING 192
SWIDTH 504 0
DWIDTH 14 0
BBX 14 23 0 0
BITMAP
0400
0700
0F80
03C0
0080
0000
0780
0780
0FC0
0FC0
0FC0
1CE0
1CE0
1CE0
1CF0
3870
3FF0
3FF0
7FF8
7878
7038
7038
F03C
ENDCHAR
STARTCHAR 00C1
ENCODING 193
SWIDTH 504 0
DWIDTH 14 0
BBX 14 23 0 0
BITMAP
0080
0380
07C0
0F00
0400
0000
0780
0780
0FC0
0FC0
0FC0
1CE0
1CE0
1CE0
1CF0
3870
3FF0
3FF0
7FF8
7878
7038
7038
F03C
ENDCHAR
STARTCHAR 00C2
ENCODING 194
SWIDTH 504 0
DWIDTH 14 0
BBX 14 23 0 0
BITMAP
0300
0780
0FC0
1CE0
0840
0000
0780
0780
0FC0
0FC0
0FC0
1CE0
1CE0
1CE0
1CF0
3870
3FF0
3FF0
7FF8
7878
7038
7038
F03C
ENDCHAR
STARTCHAR 00C3
ENCODING 195
SWIDTH 504 0
DWIDTH 14 0
BBX 14 23 0 0
BITMAP
0E20
1FE0
1FE0
19C0
0000
0000
0780
0780
0FC0
0FC0
0FC0
1CE0
1CE0
1CE0
1CF0
3870
3FF0
3FF0
7FF8
7878
7038
7038
F03C
ENDCHAR
STARTCHAR 00C4
ENCODING 196
SWIDTH 504 0
DWIDTH 14 0
BBX 14 23 0 0
BITMAP
1C60
3CF0
3CF0
1CE0
0000
0000
0780
0780
0FC0
0FC0
0FC0
1CE0
1CE0
1CE0
1CF0
3870
3FF0
3FF0
7FF8
7878
7038
7038
F03C
ENDCHAR
STARTCHAR 00C5
ENCODING 197
SWIDTH 504 0
DWIDTH 14 0
BBX 14 22 0 0
BITMAP
0780
0FC0
0CC0
0CC0
0780
0780
0780
0FC0
0FC0
0FC0
1DE0
1CE0
1CE0
3CF0
3870
3FF0
3FF0
7FF8
7878
7038
7038
F03C
ENDCHAR
STARTCHAR 00C6
ENCODING 198
SWIDTH 504 0
DWIDTH 14 0
BBX 14 17 0 0
BITMAP
07F8
07F8
07F8
0FC0
0FC0
0DC0
1DC0
1DF8
1DF8
39F8
3FC0
3FC0
7FC0
79C0
71FC
71FC
F1FC
ENDCHAR
STARTCHAR 00C7
ENCODING 199
SWIDTH 504 0
DWIDTH 14 0
BBX 12 22 1 -5
BITMAP
07E0
1FF0
3FF0
7820
7000
F000
E000
E000
E000
E000
E000
F000
F000
7820
7FF0
3FF0
0FE0
0700
0380
0380
0F80
1F00
ENDCHAR
STARTCHAR 00C8
ENCODING 200
SWIDTH 504 0
DWIDTH 14 0
BBX 11 23 2 0
BITMAP
1000
1C00
3E00
0F00
0200
0000
FFC0
FFC0
FFC0
E000
E000
E000
FF80
FF80
FF80
E000
E000
E000
E000
E000
FFE0
FFE0
FFE0
ENDCHAR
STARTCHAR 00C9
ENCODING 201
SWIDTH 504 0
DWIDTH 14 0
BBX 11 23 2 0
BITMAP
0200
0E00
1F00
3C00
1000
0000
FFC0
FFC0
FFC0
E000
E000
E000
FF80
FF80
FF80
E000
E000
E000
E000
E000
FFE0
FFE0
FFE0
ENDCHAR
STARTCHAR 00CA
ENCODING 202
SWIDTH 504 0
DWIDTH 14 0
BBX 11 23 2 0
BITMAP
0C00
1E00
3F00
7380
2100
0000
FFC0
FFC0
FFC0
E000
E000
E000
FF80
FF80
FF80
E000
E000
E000
E000
E000
FFE0
FFE0
FFE0
ENDCHAR
STARTCHAR 00CB
ENCODING 203
SWIDTH 504 0
DWIDTH 14 0
BBX 11 23 2 0
BITMAP
7180
F3C0
F3C0
7380
0000
0000
FFC0
FFC0
FFC0
E000
E000
E000
FF80
FF80
FF80
E000
E000
E000
E000
E000
FFE0
FFE0
FFE0
ENDCHAR
STARTCHAR 00CC
ENCODING 204
SWIDTH 504 0
DWIDTH 14 0
BBX 11 23 2 0
BITMAP
1000
1C00
3E00
0F00
0200
0000
FFE0
FFE0
FFE0
1E00
1E00
1E00
1E00
1E00
1E00
1E00
1E00
1E00
1E00
1E00
FFE0
FFE0
FFE0
ENDCHAR
STARTCHAR 00CD
ENCODING 205
SWIDTH 504 0
DWIDTH 14 0
BBX 11 23 2 0
BITMAP
0200
0E00
1F00
3C00
1000
0000
FFE0
FFE0
FFE0
1E00
1E00
1E00
1E00
1E00
1E00
1E00
1E00
1E00
1E00
1E00
FFE0
FFE0
FFE0
ENDCHAR
STARTCHAR 00CE
ENCODING 206
SWIDTH 504 0
DWIDTH 14 0
BBX 11 23 2 0
BITMAP
0C00
1E00
3F00
7380
2100
0000
FFE0
FFE0
FFE0
1E00
1E00
1E00
1E00
1E00
1E00
1E00
1E00
1E00
1E00
1E00
FFE0
FFE0
FFE0
ENDCHAR
STARTCHAR 00CF
ENCODING 207
SWIDTH 504 0
DWIDTH 14 0
BBX 11 23 2 0
BITMAP
7180
F3C0
F3C0
7380
0000
0000
FFE0
FFE0
FFE0
1E00
1E00
1E00
1E00
1E00
1E00
1E00
1E00
1E00
1E00
1E00
FFE0
FFE0
FFE0
ENDCHAR
STARTCHAR 00D0
ENCODING 208
SWIDTH 504 0
DWIDTH 14 0
BBX 13 17 0 0
BITMAP
3F80
3FE0
3FF0
38F0
3878
3878
3838
FF38
FF38
FF38
3838
3878
3878
38F0
3FF0
3FE0
3F80
ENDCHAR
STARTCHAR 00D1
ENCODING 209
SWIDTH 504 0
DWIDTH 14 0
BBX 12 23 1 0
BITMAP
1C40
3FC0
3FC0
3380
0000
0000
E070
F070
F870
F870
FC70
FC70
EE70
EE70
E770
E770
E3F0
E3F0
E1F0
E1F0
E0F0
E0F0
E070
ENDCHAR
STARTCHAR 00D2
ENCODING 210
SWIDTH 504 0
DWIDTH 14 0
BBX 12 23 1 0
BITMAP
0800
0E00
1F00
0780
0100
0000
1F80
3FC0
7FE0
79E0
F0F0
E070
E070
E070
E070
E070
E070
E0F0
F0F0
79E0
7FE0
3FC0
1F80
ENDCHAR
STARTCHAR 00D3
ENCODING 211
SWIDTH 504 0
DWIDTH 14 0
BBX 12 23 1 0
BITMAP
0100
0700
0F80
1E00
0800
0000
1F80
3FC0
7FE0
79E0
F0F0
E070
E070
E070
E070
E070
E070
E0F0
F0F0
79E0
7FE0
3FC0
1F80
ENDCHAR
STARTCHAR 00D4
ENCODING 212
SWIDTH 504 0
DWIDTH 14 0
BBX 12 23 1 0
BITMAP
0600
0F00
1F80
39C0
1080
0000
1F80
3FC0
7FE0
79E0
F0F0
E070
E070
E070
E070
E070
E070
E0F0
F0F0
79E0
7FE0
3FC0
1F80
ENDCHAR
STARTCHAR 00D5
ENCODING 213
SWIDTH 504 0
DWIDTH 14 0
BBX 12 23 1 0
BITMAP
1C40
3FC0
3FC0
3380
0000
0000
1F80
3FC0
7FE0
79E0
F0F0
E070
E070
E070
E070
E070
E070
E0F0
F0F0
79E0
7FE0
3FC0
1F80
ENDCHAR
STARTCHAR 00D6
ENCODING 214
SWIDTH 504 0
DWIDTH 14 0
BBX 12 23 1 0
BITMAP
38C0
79E0
79E0
39C0
0000
0000
1F80
3FC0
7FE0
79E0
F0F0
E070
E070
E070
E070
E070
E070
E0F0
F0F0
79E0
7FE0
3FC0
1F80
ENDCHAR
STARTCHAR 00D7
ENCODING 215
SWIDTH 504 0
DWIDTH 14 0
BBX 10 11 2 2
BITMAP
4080
E1C0
F3C0
7F80
3F00
1E00
3F00
7F80
F3C0
E1C0
4080
ENDCHAR
STARTCHAR 00D8
ENCODING 216
SWIDTH 504 0
DWIDTH 14 0
BBX 12 19 1 -1
BITMAP
0040
1FE0
3FE0
7FE0
79E0
F1F0
E3F0
E770
E770
EE70
EE70
FC70
FCF0
F8F0
F9E0
7FE0
7FC0
6F80
6000
ENDCHAR
STARTCHAR 00D9
ENCODING 217
SWIDTH 504 0
DWIDTH 14 0
BBX 12 23 1 0
BITMAP
0800
1C00
1F00
0F00
0300
0000
F0F0
F0F0
F0F0
F0F0
F0F0
F0F0
F0F0
F0F0
F0F0
F0F0
F0F0
F0F0
F0F0
F0F0
7FE0
3FC0
1F80
ENDCHAR
STARTCHAR 00DA
ENCODING 218
SWIDTH 504 0
DWIDTH 14 0
BBX 12 23 1 0
BITMAP
0100
0380
0F80
0F00
0C00
0000
F0F0
F0F0
F0F0
F0F0
F0F0
F0F0
F0F0
F0F0
F0F0
F0F0
F0F0
F0F0
F0F0
F0F0
7FE0
3FC0
1F80
ENDCHAR
STARTCHAR 00DB
ENCODING 219
SWIDTH 504 0
DWIDTH 14 0
BBX 12 23 1 0
BITMAP
0600
0F00
1F80
39C0
1080
0000
F0F0
F0F0
F0F0
F0F0
F0F0
F0F0
F0F0
F0F0
F0F0
F0F0
F0F0
F0F0
F0F0
F0F0
7FE0
3FC0
1F80
ENDCHAR
STARTCHAR 00DC
ENCODING 220
SWIDTH 504 0
DWIDTH 14 0
BBX 12 23 1 0
BITMAP
38C0
79E0
79E0
39C0
0000
0000
F0F0
F0F0
F0F0
F0F0
F0F0
F0F0
F0F0
F0F0
F0F0
F0F0
F0F0
F0F0
F0F0
F0F0
7FE0
3FC0
1F80
ENDCHAR
STARTCHAR 00DD
ENCODING 221
SWIDTH 504 0
DWIDTH 14 0
BBX 12 23 1 0
BITMAP
0100
0380
0F80
0F00
0C00
0000
E070
F070
F0F0
70E0
79E0
39C0
3DC0
1F80
1F80
0F00
0F00
0F00
0F00
0F00
0F00
0F00
0F00
ENDCHAR
STARTCHAR 00DE
ENCODING 222
SWIDTH 504 0
DWIDTH 14 0
BBX 11 17 2 0
BITMAP
E000
E000
FF00
FF80
FFC0
E1E0
E1E0
E0E0
E0E0
E1E0
E3E0
FFC0
FF80
FE00
E000
E000
E000
ENDCHAR
STARTCHAR 00DF
ENCODING 223
SWIDTH 504 0
DWIDTH 14 0
BBX 13 19 1 0
BITMAP
1F00
7FC0
7FC0
F1C0
F1C0
E1C0
E3C0
E380
E780
E780
E780
E3E0
E1F0
E078
E078
E478
E7F8
E7F0
E7E0
ENDCHAR
STARTCHAR 00E0
ENCODING 224
SWIDTH 504 0
DWIDTH 14 0
BBX 11 19 1 0
BITMAP
0800
0E00
1F00
0780
0100
0000
3F80
3FC0
3FE0
01E0
00E0
1FE0
7FE0
FFE0
F0E0
F0E0
FFE0
7FE0
3FE0
ENDCHAR
STARTCHAR 00E1
ENCODING 225
SWIDTH 504 0
DWIDTH 14 0
BBX 11 19 1 0
BITMAP
0100
0380
0F80
1F00
0C00
0000
3F80
3FC0
3FE0
01E0
00E0
1FE0
7FE0
FFE0
F0E0
F0E0
FFE0
7FE0
3FE0
ENDCHAR
STARTCHAR 00E2
ENCODING 226
SWIDTH 504 0
DWIDTH 14 0
BBX 11 19 1 0
BITMAP
0600
0F00
1F80
39C0
1080
0000
3F80
3FC0
3FE0
01E0
00E0
1FE0
7FE0
FFE0
F0E0
F0E0
FFE0
7FE0
3FE0
ENDCHAR
STARTCHAR 00E3
ENCODING 227
SWIDTH 504 0
DWIDTH 14 0
BBX 11 19 1 0
BITMAP
1C40
3FC0
3FC0
3380
0000
0000
3F80
3FC0
3FE0
01E0
00E0
1FE0
7FE0
FFE0
F0E0
F0E0
FFE0
7FE0
3FE0
ENDCHAR
STARTCHAR 00E4
ENCODING 228
SWIDTH 504 0
DWIDTH 14 0
BBX 11 19 1 0
BITMAP
38C0
79E0
79E0
39C0
0000
0000
3F80
3FC0
3FE0
01E0
00E0
1FE0
7FE0
FFE0
F0E0
F0E0
FFE0
7FE0
3FE0
ENDCHAR
STARTCHAR 00E5
ENCODING 229
SWIDTH 504 0
DWIDTH 14 0
BBX 11 20 1 0
BITMAP
0F00
1F80
1980
1980
1F80
0F00
0000
3F80
3FC0
3FE0
01E0
00E0
1FE0
7FE0
FFE0
F0E0
F0E0
FFE0
7FE0
3FE0
ENDCHAR
STARTCHAR 00E6
ENCODING 230
SWIDTH 504 0
DWIDTH 14 0
BBX 13 13 1 0
BITMAP
79E0
7FF0
7FF0
0730
0738
7FF8
FFF8
E7F8
C700
E700
FFF0
FFF0
38F0
ENDCHAR
STARTCHAR 00E7
ENCODING 231
SWIDTH 504 0
DWIDTH 14 0
BBX 12 18 1 -5
BITMAP
0FE0
1FF0
3FE0
7820
7000
F000
F000
F000
F000
7800
7FF0
3FF0
0FF0
0700
0380
0380
0F80
1F00
ENDCHAR
STARTCHAR 00E8
ENCODING 232
SWIDTH 504 0
DWIDTH 14 0
BBX 12 19 1 0
BITMAP
0800
0E00
1F00
0780
0100
0000
0F80
3FC0
7FE0
F0F0
F070
FFF0
FFF0
FFF0
F000
F820
7FE0
3FE0
0FC0
ENDCHAR
STARTCHAR 00E9
ENCODING 233
SWIDTH 504 0
DWIDTH 14 0
BBX 12 19 1 0
BITMAP
0100
0380
0FC0
0F00
0C00
0000
0F80
3FC0
7FE0
F0F0
F070
FFF0
FFF0
FFF0
F000
F820
7FE0
3FE0
0FC0
ENDCHAR
STARTCHAR 00EA
ENCODING 234
SWIDTH 504 0
DWIDTH 14 0
BBX 12 19 1 0
BITMAP
0200
0F00
1F80
3DC0
1080
0000
0F80
3FC0
7FE0
F0F0
F070
FFF0
FFF0
FFF0
F000
F820
7FE0
3FE0
0FC0
ENDCHAR
STARTCHAR 00EB
ENCODING 235
SWIDTH 504 0
DWIDTH 14 0
BBX 12 19 1 0
BITMAP
38C0
79E0
79E0
39C0
0000
0000
0F80
3FC0
7FE0
F0F0
F070
FFF0
FFF0
FFF0
F000
F820
7FE0
3FE0
0FC0
ENDCHAR
STARTCHAR 00EC
ENCODING 236
SWIDTH 504 0
DWIDTH 14 0
BBX 12 19 1 0
BITMAP
0800
1C00
3F00
0F00
0200
0000
FE00
FE00
FE00
0E00
0E00
0E00
0E00
0E00
0E00
0F10
0FF0
07F0
03E0
ENDCHAR
STARTCHAR 00ED
ENCODING 237
SWIDTH 504 0
DWIDTH 14 0
BBX 12 19 1 0
BITMAP
0100
0700
0F80
1E00
0800
0000
FE00
FE00
FE00
0E00
0E00
0E00
0E00
0E00
0E00
0F10
0FF0
07F0
03E0
ENDCHAR
STARTCHAR 00EE
ENCODING 238
SWIDTH 504 0
DWIDTH 14 0
BBX 12 19 1 0
BITMAP
0400
0E00
1F00
3B80
1180
0000
FE00
FE00
FE00
0E00
0E00
0E00
0E00
0E00
0E00
0F10
0FF0
07F0
03E0
ENDCHAR
STARTCHAR 00EF
ENCODING 239
SWIDTH 504 0
DWIDTH 14 0
BBX 12 19 1 0
BITMAP
71C0
7BC0
7BC0
71C0
0000
0000
FE00
FE00
FE00
0E00
0E00
0E00
0E00
0E00
0E00
0F10
0FF0
07F0
03E0
ENDCHAR
STARTCHAR 00F0
ENCODING 240
SWIDTH 504 0
DWIDTH 14 0
BBX 12 20 1 0
BITMAP
0400
0600
0F10
0FF0
07F0
0FC0
0DE0
01E0
0EE0
3FE0
7FF0
79F0
F0F0
F0F0
F0F0
F0E0
79E0
7FE0
3FC0
1F00
ENDCHAR
STARTCHAR 00F1
ENCODING 241
SWIDTH 504 0
DWIDTH 14 0
BBX 10 19 2 0
BITMAP
3880
7F80
7F80
6700
0000
0000
7F00
FF80
FFC0
E3C0
E1C0
E1C0
E1C0
E1C0
E1C0
E1C0
E1C0
E1C0
E1C0
ENDCHAR
STARTCHAR 00F2
ENCODING 242
SWIDTH 504 0
DWIDTH 14 0
BBX 12 19 1 0
BITMAP
0800
0E00
1F00
0780
0100
0000
1F80
3FC0
7FE0
F0F0
F0F0
E070
E070
E070
F0F0
F0F0
7FE0
3FC0
1F80
ENDCHAR
STARTCHAR 00F3
ENCODING 243
SWIDTH 504 0
DWIDTH 14 0
BBX 12 19 1 0
BITMAP
0100
0700
0F80
1E00
0800
0000
1F80
3FC0
7FE0
F0F0
F0F0
E070
E070
E070
F0F0
F0F0
7FE0
3FC0
1F80
ENDCHAR
STARTCHAR 00F4
ENCODING 244
SWIDTH 504 0
DWIDTH 14 0
BBX 12 19 1 0
BITMAP
0600
0F00
1F80
39C0
1080
0000
1F80
3FC0
7FE0
F0F0
F0F0
E070
E070
E070
F0F0
F0F0
7FE0
3FC0
1F80
ENDCHAR
STARTCHAR 00F5
ENCODING 245
SWIDTH 504 0
DWIDTH 14 0
BBX 12 19 1 0
BITMAP
1C40
3FC0
3FC0
3380
0000
0000
1F80
3FC0
7FE0
F0F0
F0F0
E070
E070
E070
F0F0
F0F0
7FE0
3FC0
1F80
ENDCHAR
STARTCHAR 00F6
ENCODING 246
SWIDTH 504 0
DWIDTH 14 0
BBX 12 19 1 0
BITMAP
38C0
79E0
79E0
39C0
0000
0000
1F80
3FC0
7FE0
F0F0
F0F0
E070
E070
E070
F0F0
F0F0
7FE0
3FC0
1F80
ENDCHAR
STARTCHAR 00F7
ENCODING 247
SWIDTH 504 0
DWIDTH 14 0
BBX 12 14 1 0
BITMAP
0600
0F00
0F00
0600
0000
FFF0
FFF0
FFF0
0000
0000
0600
0F00
0F00
0600
ENDCHAR
STARTCHAR 00F8
ENCODING 248
SWIDTH 504 0
DWIDTH 14 0
BBX 12 13 1 0
BITMAP
1FF0
3FE0
7FE0
F9F0
F3F0
E370
E670
EC70
FCF0
F9F0
7FE0
7FC0
FF80
ENDCHAR
STARTCHAR 00F9
ENCODING 249
SWIDTH 504 0
DWIDTH 14 0
BBX 10 19 2 0
BITMAP
1000
1C00
3E00
0F00
0200
0000
E1C0
E1C0
E1C0
E1C0
E1C0
E1C0
E1C0
E1C0
E1C0
F1C0
FFC0
7FC0
3F80
ENDCHAR
STARTCHAR 00FA
ENCODING 250
SWIDTH 504 0
DWIDTH 14 0
BBX 10 19 2 0
BITMAP
0200
0E00
1F00
3C00
1000
0000
E1C0
E1C0
E1C0
E1C0
E1C0
E1C0
E1C0
E1C0
E1C0
F1C0
FFC0
7FC0
3F80
ENDCHAR
STARTCHAR 00FB
ENCODING 251
SWIDTH 504 0
DWIDTH 14 0
BBX 10 19 2 0
BITMAP
0C00
1E00
3F00
7380
2100
0000
E1C0
E1C0
E1C0
E1C0
E1C0
E1C0
E1C0
E1C0
E1C0
F1C0
FFC0
7FC0
3F80
ENDCHAR
STARTCHAR 00FC
ENCODING 252
SWIDTH 504 0
DWIDTH 14 0
BBX 10 19 2 0
BITMAP
7180
F3C0
F3C0
7380
0000
0000
E1C0
E1C0
E1C0
E1C0
E1C0
E1C0
E1C0
E1C0
E1C0
F1C0
FFC0
7FC0
3F80
ENDCHAR
STARTCHAR 00FD
ENCODING 253
SWIDTH 504 0
DWIDTH 14 0
BBX 12 24 1 -5
BITMAP
0100
0700
0F80
1E00
0800
0000
F070
F0F0
70F0
78E0
78E0
39E0
3DC0
3DC0
1DC0
1F80
0F80
0F80
0700
0F00
0E00
FE00
FC00
F800
ENDCHAR
STARTCHAR 00FE
ENCODING 254
SWIDTH 504 0
DWIDTH 14 0
BBX 11 24 2 -5
BITMAP
E000
E000
E000
E000
E000
E000
FF00
FF80
FFC0
E3E0
E1E0
E0E0
E0E0
E0E0
E1E0
E1E0
FFC0
FFC0
FF00
E000
E000
E000
E000
E000
ENDCHAR
STARTCHAR 00FF
ENCODING 255
SWIDTH 504 0
DWIDTH 14 0
BBX 12 24 1 -5
BITMAP
38C0
79E0
79E0
39C0
0000
0000
F070
F0F0
70F0
78E0
78E0
39E0
3DC0
3DC0
1DC0
1F80
0F80
0F80
0700
0F00
0E00
FE00
FC00
F800
ENDCHAR
STARTCHAR 0152
ENCODING 140
SWIDTH 504 0
DWIDTH 14 0
BBX 14 17 0 0
BITMAP
0FF8
3FF8
3FF8
79C0
71C0
71C0
71C0
F1F8
F1F8
71F8
71C0
71C0
71C0
79C0
3FFC
3FFC
0FFC
ENDCHAR
STARTCHAR 0153
ENCODING 156
SWIDTH 504 0
DWIDTH 14 0
BBX 13 13 1 0
BITMAP
39E0
7DF0
FFF0
EF30
C738
C7F8
C7F8
C700
C700
EF80
FFF0
7DF0
38F0
ENDCHAR
STARTCHAR 0160
ENCODING 138
SWIDTH 504 0
DWIDTH 14 0
BBX 12 23 1 0
BITMAP
1080
39C0
1F80
0F00
0600
0000
1F80
3FE0
7FE0
7040
F000
F000
7C00
7F80
3FC0
0FE0
01F0
00F0
00F0
40F0
7FE0
FFE0
3F80
ENDCHAR
STARTCHAR 0161
ENCODING 154
SWIDTH 504 0
DWIDTH 14 0
BBX 10 19 2 0
BITMAP
2100
7380
3F00
1E00
0C00
0000
3F80
7FC0
FF80
E080
F000
FC00
7F80
0FC0
01C0
C1C0
FFC0
FFC0
7F00
ENDCHAR
STARTCHAR 0178
ENCODING 159
SWIDTH 504 0
DWIDTH 14 0
BBX 12 23 1 0
BITMAP
38C0
79E0
79E0
39C0
0000
0000
E070
F070
F0F0
70E0
79E0
39C0
3DC0
1F80
1F80
0F00
0F00
0F00
0F00
0F00
0F00
0F00
0F00
ENDCHAR
STARTCHAR 017D
ENCODING 142
SWIDTH 504 0
DWIDTH 14 0
BBX 12 23 1 0
BITMAP
1080
39C0
1F80
0F00
0600
0000
7FE0
7FE0
7FE0
01C0
03C0
0380
0780
0700
0E00
1E00
1C00
3C00
3800
7800
7FF0
FFF0
FFF0
ENDCHAR
STARTCHAR 017E
ENCODING 158
SWIDTH 504 0
DWIDTH 14 0
BBX 10 19 2 0
BITMAP
2100
7380
3F00
1E00
0C00
0000
FFC0
FFC0
FFC0
0780
0F80
0F00
1E00
3C00
7800
7000
FFC0
FFC0
FFC0
ENDCHAR
STARTCHAR 0192
ENCODING 131
SWIDTH 504 0
DWIDTH 14 0
BBX 14 24 0 -5
BITMAP
01F8
07FC
0FF8
0F08
0E00
0E00
7FF8
7FF8
7FF8
0E00
0E00
0E00
0E00
0E00
0E00
0E00
0E00
0E00
0E00
0E00
1E00
7E00
FC00
F800
ENDCHAR
STARTCHAR 02C6
ENCODING 136
SWIDTH 504 0
DWIDTH 14 0
BBX 8 5 3 14
BITMAP
18
3C
7E
E7
42
ENDCHAR
STARTCHAR 02DC
ENCODING 152
SWIDTH 504 0
DWIDTH 14 0
BBX 8 4 3 15
BITMAP
71
FF
FF
CE
ENDCHAR
STARTCHAR 2013
ENCODING 150
SWIDTH 504 0
DWIDTH 14 0
BBX 11 3 2 6
BITMAP
FFE0
FFE0
FFE0
ENDCHAR
STARTCHAR 2014
ENCODING 151
SWIDTH 504 0
DWIDTH 14 0
BBX 14 3 0 6
BITMAP
FFFC
FFFC
FFFC
ENDCHAR
STARTCHAR 2018
ENCODING 145
SWIDTH 504 0
DWIDTH 14 0
BBX 6 9 4 11
BITMAP
0C
3C
78
60
F0
F8
F8
F8
70
ENDCHAR
STARTCHAR 2019
ENCODING 146
SWIDTH 504 0
DWIDTH 14 0
BBX 6 9 4 11
BITMAP
38
7C
7C
7C
3C
1C
78
F0
C0
ENDCHAR
STARTCHAR 201A
ENCODING 130
SWIDTH 504 0
DWIDTH 14 0
BBX 6 9 4 -5
BITMAP
38
78
7C
7C
7C
18
38
F0
C0
ENDCHAR
STARTCHAR 201C
ENCODING 147
SWIDTH 504 0
DWIDTH 14 0
BBX 12 8 1 11
BITMAP
1830
3CF0
70C0
6180
F1C0
F1E0
F1E0
70C0
ENDCHAR
STARTCHAR 201D
ENCODING 148
SWIDTH 504 0
DWIDTH 14 0
BBX 12 8 1 12
BITMAP
3860
78F0
7CF0
38F0
1830
3860
F1C0
C180
ENDCHAR
STARTCHAR 201E
ENCODING 132
SWIDTH 504 0
DWIDTH 14 0
BBX 13 8 0 -5
BITMAP
1870
3CF0
3CF8
3C78
1C30
3870
F1E0
6180
ENDCHAR
STARTCHAR 2020
ENCODING 134
SWIDTH 504 0
DWIDTH 14 0
BBX 10 21 2 -4
BITMAP
1E00
1E00
1E00
1E00
1E00
FFC0
FFC0
FFC0
1E00
1E00
1E00
1E00
1E00
1E00
1E00
0E00
0C00
0C00
0C00
0C00
0C00
ENDCHAR
STARTCHAR 2021
ENCODING 135
SWIDTH 504 0
DWIDTH 14 0
BBX 10 21 2 -4
BITMAP
1C00
1C00
1C00
1C00
1C00
FFC0
FFC0
FFC0
1C00
1C00
1C00
1C00
FFC0
FFC0
FFC0
1C00
1C00
1C00
0C00
0C00
0C00
ENDCHAR
STARTCHAR 2022
ENCODING 149
SWIDTH 504 0
DWIDTH 14 0
BBX 8 8 3 5
BITMAP
3C
7E
FF
FF
FF
FF
7E
3C
ENDCHAR
STARTCHAR 2026
ENCODING 133
SWIDTH 504 0
DWIDTH 14 0
BBX 12 3 1 0
BITMAP
E670
EF70
E670
ENDCHAR
STARTCHAR 2030
ENCODING 137
SWIDTH 504 0
DWIDTH 14 0
BBX 14 17 0 0
BITMAP
7800
7800
CC00
CC00
CC1C
78F0
7BC0
0F00
7C00
F000
5C78
1E78
36CC
33CC
36CC
1E78
1C78
ENDCHAR
STARTCHAR 2039
ENCODING 139
SWIDTH 504 0
DWIDTH 14 0
BBX 7 13 4 0
BITMAP
18
1E
3C
3C
78
F8
F0
F8
78
3C
3C
1E
18
ENDCHAR
STARTCHAR 203A
ENCODING 155
SWIDTH 504 0
DWIDTH 14 0
BBX 7 13 4 1
BITMAP
20
F0
78
78
3C
3E
1E
3E
3C
78
78
F0
30
ENDCHAR
STARTCHAR 20AC
ENCODING 128
SWIDTH 504 0
DWIDTH 14 0
BBX 12 17 1 0
BITMAP
03F0
0FF0
1FE0
1E00
3C00
3C00
FFC0
FFC0
7800
7800
FFC0
FF80
3C00
3E10
1FF0
0FF0
07E0
ENDCHAR
STARTCHAR 2122
ENCODING 153
SWIDTH 504 0
DWIDTH 14 0
BBX 13 7 0 10
BITMAP
FD98
FD98
31A8
3168
3368
3308
3308
ENDCHAR
ENDFONT
